<svg xmlns="http://www.w3.org/2000/svg" version="1.1" xmlns:xlink="http://www.w3.org/1999/xlink" xmlns:svgjs="http://svgjs.dev/svgjs" width="3840" height="2160" preserveAspectRatio="none" viewBox="0 0 3840 2160"><g mask="url(&quot;#SvgjsMask1097&quot;)" fill="none"><rect width="3840" height="2160" x="0" y="0" fill="url(&quot;#SvgjsLinearGradient1098&quot;)"></rect><path d="M3207.2395310245865-67.68203322692281L3243.082478733384 444.89599961337024 3755.660511573677 409.05305190457284 3719.8175638648795-103.52498093572021z" fill="rgba(28, 83, 142, 0.4)" class="triangle-float3"></path><path d="M1328.87 465.54 a466.22 466.22 0 1 0 932.44 0 a466.22 466.22 0 1 0 -932.44 0z" fill="rgba(28, 83, 142, 0.4)" class="triangle-float2"></path><path d="M307.478,434.747C403.169,431.317,468.497,346.42,511.378,260.806C549.197,185.298,550.054,100.313,512.99,24.431C470.042,-63.496,405.317,-154.844,307.478,-156.639C207.723,-158.469,135.417,-71.397,88.474,16.642C44.766,98.614,33.478,194.101,76.582,276.392C122.995,365,207.514,438.33,307.478,434.747" fill="rgba(28, 83, 142, 0.4)" class="triangle-float1"></path><path d="M2528.33 1704.41 a495.08 495.08 0 1 0 990.16 0 a495.08 495.08 0 1 0 -990.16 0z" fill="rgba(28, 83, 142, 0.4)" class="triangle-float2"></path><path d="M2733.7720565214636 329.6083262863319L2680.527178074408-278.9834192176813 2071.935432570395-225.73854077062566 2125.1803110174505 382.85320473338754z" fill="rgba(28, 83, 142, 0.4)" class="triangle-float2"></path><path d="M2169.6596826974064 242.70849619802394L2543.378566243272 485.4043768940048 2786.074446939253 111.68549334813943 2412.3555633933875-131.0103873478415z" fill="rgba(28, 83, 142, 0.4)" class="triangle-float1"></path><path d="M2096.978,1221.722C2160.149,1219.044,2207.41,1168.65,2236.065,1112.288C2261.835,1061.602,2261.686,1002.549,2233.521,953.153C2205.078,903.268,2154.366,870.395,2096.978,868.353C2035.753,866.175,1975.075,890.913,1942.501,942.799C1907.864,997.971,1904.282,1068.029,1935.844,1125.017C1968.372,1183.75,2029.899,1224.566,2096.978,1221.722" fill="rgba(28, 83, 142, 0.4)" class="triangle-float2"></path><path d="M773.98 1033.87 a437.32 437.32 0 1 0 874.64 0 a437.32 437.32 0 1 0 -874.64 0z" fill="rgba(28, 83, 142, 0.4)" class="triangle-float3"></path><path d="M2178.4996703628467 1831.4184762623597L1815.9677562019695 1856.7691772474084 2203.8503713478954 2193.950390423237z" fill="rgba(28, 83, 142, 0.4)" class="triangle-float2"></path></g><defs><mask id="SvgjsMask1097"><rect width="3840" height="2160" fill="#ffffff"></rect></mask><linearGradient x1="10.94%" y1="-19.44%" x2="89.06%" y2="119.44%" gradientUnits="userSpaceOnUse" id="SvgjsLinearGradient1098"><stop stop-color="#0e2a47" offset="0"></stop><stop stop-color="rgba(9, 70, 157, 1)" offset="1"></stop></linearGradient></defs></svg>